<svg width="1440" height="1358" viewBox="0 0 1440 1358" fill="none" xmlns="http://www.w3.org/2000/svg">
<g style="mix-blend-mode:screen" opacity="0.1">
<path d="M1437.3 759.911C1356.08 696.534 1265.48 721.42 1272.54 814.843C1276.34 865.051 1287.92 913.801 1283.01 943.075C1262.89 1063.06 1090.7 979.093 1006.64 893.961C958.307 845.016 891.45 781.552 853.688 678.434C828.449 609.494 821.771 517.899 864.054 494.928C926.961 460.757 995.545 509.662 1050.32 516.77C1200.99 536.362 1247.62 447.508 1190.36 363.317C1146.88 299.402 1265.73 318.309 1361.28 340.668C1463 364.466 1529.33 327.217 1531.17 270.19C1534.92 153.097 1321.45 162.947 1314.45 103.379C1309.77 63.464 1390.91 55.489 1451 92.381C1578.8 170.841 1657.12 338.774 1859.69 257.122C1879.7 249.053 1864.45 23.7972 1851.13 43.1737C1737.52 208.566 1486.87 -50.9141 1307.86 9.24459C1280.29 18.5096 1238.06 36.2334 1230.34 73.4949C1220.51 120.996 1291.5 153.272 1335.9 197.125C1373.08 233.822 1352.21 266.649 1268.49 275.336C1227.76 279.562 1196.92 278.145 1153.69 270.553C1117.77 264.277 1071.07 242.267 1039.82 270.109C1007.76 298.71 1041.44 336.731 1052.37 356.806C1073.47 395.593 1089.68 436.893 1064.46 456.712C1012.46 497.602 961.182 425.061 869.543 407.357C809.108 395.68 748.445 416.266 694.217 395.512C642.173 375.598 594.731 333.184 534.202 333.184C479.538 333.184 430.396 359.91 398.533 410.482C371.601 453.226 357.607 509.487 364.258 558.513C372.843 621.789 382.43 661.087 314.048 690.77C269.346 710.173 207.629 651.815 174.932 701.432C158.735 726.022 159.4 756.908 138.138 777.366C122.391 792.517 100.632 808.809 80.874 817.745C38.0202 837.128 -6.09669 821.897 -50.536 823.308L-79 947.159C-65.5842 957.963 -45.8737 893.471 -31.1413 890.414C14.5812 880.934 84.5421 1023.36 235.777 947.704C268.876 931.149 280.969 903.529 290.911 868.719C350.714 659.447 543.419 822.253 606.904 700.317C658.007 602.157 496.481 556.048 526.114 462.087C556.264 366.501 730.42 390.494 768.014 493.974C794.234 566.152 790.452 647.414 788.376 723.227C777.627 1116.3 987.57 1176.31 1067.1 1207.29C1240.95 1275.01 1557.78 1357.98 1557.78 1357.98C1567.89 1355.05 1610.5 1279 1610.5 1279C1473.59 1155.61 1255.68 1028.8 1397.69 913.714C1482.51 844.969 1543.17 890.071 1599.36 912.323C1742.95 969.19 1819.79 786.073 1903 890.394C1891.04 878.334 1898.49 754.946 1898.49 754.946C1813.56 752.03 1816.71 832.748 1743.31 830.544C1731.4 830.188 1718.01 825.438 1707.64 819.888C1682.09 806.216 1651.34 798.785 1622.26 800.129C1615.2 800.458 1524.15 827.689 1437.29 759.904L1437.3 759.911ZM1153.15 1160.41C1128.33 1156.48 949.641 1115.43 907.459 984.085C899.592 959.582 915.124 941.24 947.74 943.337C968.646 944.68 1108.33 989.447 1178.12 1064.12C1201.47 1089.11 1223.48 1171.56 1153.15 1160.4V1160.41Z" fill="#00158A"/>
</g>
</svg>
