<svg width="1440" height="312" viewBox="0 0 1440 312" fill="none" xmlns="http://www.w3.org/2000/svg">
<g style="mix-blend-mode:screen" opacity="0.2">
<path d="M-68 211.813C-36.2887 181.029 10.9583 137.282 54.159 125.362C137.885 102.248 193.316 157.357 209.617 170.518C260.987 211.972 314.152 221.829 356.015 194.637C411.427 158.651 419.741 72.5459 520.264 25.726C625.545 -23.3155 702.896 33.4916 728.564 52.2686C793.56 99.8002 824.959 -2.42272 890.494 0.0440169C982.779 3.52053 997.324 132.719 1083.64 107.21C1153.63 86.5241 1196.06 93.1357 1241.98 131.209C1292.48 173.081 1357.58 217.338 1375.11 168.316C1391.97 121.145 1434.01 87.7118 1478.56 82.4946C1482.7 96.141 1479.14 113.86 1480.36 128.593C1481.91 147.317 1504.97 195.955 1507 214.54C1486.41 194.334 1428.37 214.496 1413.77 233.067C1359.33 302.303 1330.91 233.889 1280.12 220.411C1196.98 198.349 1162.81 295.312 1077.34 205.514C1037.27 163.421 1019.74 117.423 909.089 93.4242C853.639 81.3934 838.233 128.646 748.137 99.2184C740.968 96.8767 637.352 73.2816 548.958 125.54C475.735 168.826 484.112 260.595 413.246 297.913C371.388 319.955 336.708 313.584 306.411 296.259C262.907 271.38 218.624 233.567 172.56 219.165C112.284 200.321 67.8231 212.409 16.3903 247.333C-9.89387 265.177 -32.9015 293.105 -61.038 306.117C-64.9304 280.079 -62.111 231.523 -67.9952 211.823L-68 211.813Z" fill="#27007A"/>
</g>
</svg>
