<svg width="1440" height="849" viewBox="0 0 1440 849" fill="none" xmlns="http://www.w3.org/2000/svg">
<g style="mix-blend-mode:screen" opacity="0.2">
<path d="M1856.73 611.469C2199.29 720.968 2177.59 645.426 2155.38 634.781C2138.76 626.818 2222.55 543.359 2143.42 611.798C1986.29 747.701 1965.04 447.381 1776.53 466.379C1617.09 482.441 1662.42 649.566 1565.57 673.16C1515.7 685.31 1387.98 688.597 1339.52 604.742C1309.78 553.299 1296.11 491.002 1195.76 454.908C1120.61 427.879 1033.47 501.264 969.172 454.182C777.388 313.743 638.896 452.422 649.727 341.672C661.472 221.589 757.417 196.14 748.829 111.882C735.647 -17.375 514.223 -18 319.491 142.721C272.344 181.631 120.462 234.203 -5.76191 128.225C-85.0204 61.6748 -173.673 -8.13473 -192.18 -18C-204.583 22.2608 -224.419 61.5135 -255 89.3218C-231.833 111.552 -99.9078 168.506 -37.108 219.963C194.946 410.098 256.255 274.645 298.533 225.272C447.669 51.1107 562.417 179.91 548.054 368.533C539.774 477.239 612.814 518.817 715.455 509.664C774.722 504.382 836.421 464.74 892.646 474.04C957.393 484.752 1054.18 505.363 1079.28 566.504C1137.71 708.878 1242.18 723.32 1312.98 713.428C1337.35 710.021 1360.68 702.299 1385.19 700.935C1525.69 693.16 1575.14 843.235 1662.86 848.712C1836.71 859.572 1692.62 558.997 1856.74 611.455L1856.73 611.469Z" fill="#27007A"/>
</g>
</svg>
