<svg width="18" height="17" viewBox="0 0 18 17" fill="none" xmlns="http://www.w3.org/2000/svg">
<path d="M13.2103 0C15.8556 0 18 2.06589 18 4.61429V12.3857C18 14.9341 15.8556 17 13.2103 17H5.89967C3.25438 17 1.10996 14.9341 1.10996 12.3857C1.10996 11.9833 1.44855 11.6571 1.86623 11.6571C2.2839 11.6571 2.6225 11.9833 2.6225 12.3857C2.6225 14.1294 4.08974 15.5429 5.89967 15.5429H10.4735C9.66935 14.7175 9.17684 13.607 9.17684 12.3857V4.61429C9.17684 3.39299 9.66935 2.28252 10.4735 1.45714H5.89967C4.08974 1.45714 2.6225 2.87064 2.6225 4.61429C2.6225 5.01666 2.2839 5.34286 1.86623 5.34286C1.44855 5.34286 1.10996 5.01666 1.10996 4.61429C1.10996 2.06589 3.25438 0 5.89967 0H13.2103Z" fill="white"/>
<path d="M4.3567 6.04197C4.06136 6.32649 4.06136 6.7878 4.3567 7.07232L5.08239 7.77143L0.756271 7.77143C0.338593 7.77143 0 8.09762 0 8.5C0 8.90238 0.338594 9.22857 0.756271 9.22857L5.08239 9.22857L4.3567 9.92768C4.06136 10.2122 4.06136 10.6735 4.3567 10.958C4.65204 11.2426 5.13088 11.2426 5.42623 10.958L6.72993 9.70208C7.41906 9.03819 7.41906 7.96181 6.72993 7.29792L5.42623 6.04197C5.13088 5.75744 4.65204 5.75744 4.3567 6.04197Z" fill="white"/>
</svg>
