<svg xmlns="http://www.w3.org/2000/svg" aria-hidden="true" style="position:absolute;width:0;height:0;overflow:hidden" preserveAspectRatio="none">
   <defs>

      <symbol id="logo" viewBox="0 0 112 50">
         <path d="M86.1692 25.2556C73.1899 25.2556 62.66 19.7538 62.66 12.9742C62.66 6.19451 73.1832 0.686035 86.1692 0.686035C99.1618 0.686035 109.705 6.18778 109.705 12.9742C109.705 19.7606 99.1618 25.2556 86.1692 25.2556Z" fill="#DA2128"/>
         <path d="M86.1758 0.161407C73.0035 0.161407 62.3205 5.89184 62.3205 12.9674C62.3205 20.043 73.0035 25.7735 86.1758 25.7735C99.3548 25.7735 110.031 20.0363 110.031 12.9674C110.031 5.89856 99.3548 0.161407 86.1758 0.161407ZM86.1758 24.0247C73.3629 24.0247 62.9861 19.0745 62.9861 12.9674C62.9861 6.86036 73.3696 1.91686 86.1758 1.91686C98.982 1.91686 109.372 6.86708 109.372 12.9742C109.372 19.0812 98.9887 24.0247 86.1758 24.0247Z" fill="#F4DB6C"/>
         <path d="M86.1758 0.161407C73.0035 0.161407 62.3205 5.89184 62.3205 12.9674C62.3205 20.043 73.0035 25.7735 86.1758 25.7735C99.3548 25.7735 110.031 20.0363 110.031 12.9674C110.031 5.89856 99.3548 0.161407 86.1758 0.161407ZM86.1758 24.0247C73.3629 24.0247 62.9861 19.0745 62.9861 12.9674C62.9861 6.86036 73.3696 1.91686 86.1758 1.91686C98.982 1.91686 109.372 6.86709 109.372 12.9742C109.372 19.0812 98.9887 24.0247 86.1758 24.0247Z" stroke="#DA2128" stroke-width="0.401639"/>
         <path d="M79.8725 9.56415C80.1854 9.43636 80.4383 9.39601 80.4383 9.39601C80.1987 9.90044 79.9324 10.6134 79.979 11.1313C80.0656 12.0124 80.8044 11.9653 81.43 11.6223C81.43 11.6223 81.6297 11.5079 81.7828 11.3869C81.8627 12.046 82.5283 12.0527 83.8329 10.8959C83.9194 11.8913 84.5983 11.8442 84.7847 11.8442C85.2173 11.8442 86.0693 11.5012 86.6617 10.9833L86.2956 11.8308H87.0943L87.7932 10.1157H88.6785C88.4788 10.6134 88.4189 10.7546 88.3057 11.0506C88.0794 11.629 88.3923 11.8442 88.6119 11.8442C89.1244 11.8442 89.4572 11.629 89.9564 11.2053C89.9365 12.0662 91.1745 11.9384 91.7269 11.5954C91.7269 11.5954 92.752 11.0909 92.9583 9.79956C92.9583 9.79956 93.4176 9.7323 93.6172 9.43636L92.965 10.9295C92.4125 12.3352 93.7437 11.7837 94.3095 11.4339C94.5158 11.3061 94.7088 11.1582 94.7088 11.1582C94.4359 12.5034 96.2131 11.5146 96.486 11.1447C96.486 11.1447 96.2863 11.9115 96.892 11.8442C97.4645 11.7837 97.9836 11.4945 98.5494 10.8488L98.4429 10.7412C97.7573 11.4541 96.9719 11.7501 97.2781 10.9968L98.4163 8.23243L97.6708 8.21898L96.5925 10.7681C96.3529 11.064 96.2797 11.138 95.9136 11.3465C95.6141 11.5147 95.3478 11.4743 95.6141 10.8353L96.679 8.23916H95.9269L94.8819 10.7412C94.5691 11.064 94.2829 11.2322 94.0832 11.3331C93.6971 11.5348 93.4575 11.5819 93.7837 10.8622L94.842 8.23243H94.0898L93.9367 8.61581C93.6905 9.38255 92.9916 9.5238 92.9916 9.5238C93.0848 9.03953 92.8385 8.21898 92.1263 8.23916C91.8334 8.25261 91.667 8.50147 91.6471 8.56873L92.346 6.84018C85.8763 3.8539 79.3999 5.60262 74.2082 8.13154L75.2732 5.6228C75.1867 5.6228 69.8419 5.60262 69.8419 5.60262L69.2694 6.43663H74.0152L73.1632 8.52164L72.8571 8.69652C72.8571 8.69652 68.7769 10.7412 68.4707 13.8216C68.2977 15.5905 69.6888 15.456 70.5807 14.7834C71.1664 14.353 71.9851 13.4651 72.5575 12.12C73.2697 10.4654 73.9952 8.73015 73.9952 8.73015C73.9952 8.73015 74.155 8.66961 74.4944 8.65616C74.9337 8.64271 74.4811 9.46326 74.4345 9.58433C74.1217 10.3107 74.0818 10.3982 73.7756 11.0842C73.4694 11.7635 74.1483 12.0998 75.0469 11.5685C75.0735 11.5483 73.6358 12.8262 73.4561 14.1243C73.3563 14.8372 73.5759 15.0928 73.6691 15.1668C74.1616 15.6107 75.2 15.0726 75.799 13.6131C76.0985 12.88 77.6095 9.25476 77.6095 9.25476C77.6095 9.25476 77.909 8.54182 78.1286 8.25934C78.4614 7.82888 78.8009 7.89614 78.8808 7.93649C79.38 8.16517 79.0538 9.54397 79.0538 9.54397C78.3683 9.86681 77.4763 10.3309 77.3033 10.9766C77.27 11.1111 77.1502 11.9989 78.1286 11.8106C79.4465 11.555 79.8659 9.57088 79.8659 9.57088M71.1265 13.1961C70.1081 15.234 69.3826 15.1601 69.0431 14.9986C68.7969 14.8776 68.4042 14.2857 69.1829 12.8665C69.6089 12.0863 69.9883 11.4877 70.7671 10.7345C71.8254 9.71885 73.07 8.7974 73.07 8.7974C73.07 8.7974 71.9119 11.6088 71.1198 13.1961M81.8227 11.0775C81.8227 11.0775 81.663 11.2389 81.45 11.3734C81.237 11.5079 80.9841 11.5819 80.811 11.4608C80.7178 11.3936 80.5648 11.0976 80.7977 10.4049C80.7977 10.4049 81.0706 9.59778 81.3369 9.15387C81.7296 8.49474 82.3885 8.23916 82.6814 8.77723C82.6814 8.77723 81.7628 11.0371 81.8227 11.0707M91.8002 8.64271C91.9 8.5351 92.0864 8.45439 92.2062 8.52837C92.6388 8.81758 92.3726 9.54397 92.3726 9.54397C92.3726 9.54397 91.8867 9.53725 91.7602 9.25476C91.6737 9.05971 91.6737 8.7705 91.8002 8.63598M92.306 9.75248C92.306 9.75248 91.9466 10.8757 91.2144 11.4474C90.7951 11.7702 90.4423 11.7164 90.5488 11.2053C90.5887 11.0506 91.3143 9.30857 91.4807 8.91174C91.3609 9.71212 92.2994 9.75248 92.2994 9.75248M79.0272 7.68091C77.8824 7.45896 77.0903 8.49474 76.6111 9.67177C75.7591 11.7299 75.8323 11.6559 74.6542 14.4068C74.4412 14.9179 74.1483 15.2004 73.8887 15.0861C73.6025 14.965 73.7822 14.3328 74.1284 13.5391C74.5078 12.7253 74.8605 12.1603 75.8123 10.7614L75.7058 10.6537C75.1334 11.4003 74.2814 11.7097 74.6608 10.8824C74.9271 10.2973 75.0536 9.97443 75.3398 9.3153C75.6859 8.51492 75.0402 8.30642 74.0086 8.56873L74.0618 8.48129C79.9457 5.79767 85.9961 5.48828 91.5472 6.91416C91.0813 8.02393 90.1495 10.3309 90.1495 10.3309C90.0563 10.5259 89.9564 10.9093 89.9564 10.9093C89.3574 11.4676 88.8515 11.7232 89.0179 11.0707L90.1761 8.21225H89.4439L88.7517 9.87354H87.8598L88.552 8.21225C88.3723 8.21225 87.7932 8.21225 87.7932 8.21225L86.7682 10.6739C86.3355 11.0573 85.5102 11.4608 85.1375 11.4676C84.8246 11.481 84.4119 11.3465 84.5783 10.4789C84.6649 10.0417 84.8446 9.53052 85.1441 8.86466C85.4902 8.10464 85.6966 7.87596 85.9761 7.53294C86.695 6.66531 87.4271 7.13612 86.8214 7.90287C86.7149 8.03066 86.5885 8.15172 86.4886 8.26606L87.0078 8.77723C87.6668 8.09792 87.7932 6.90071 86.8348 6.84018C85.7898 6.77292 84.9245 7.74144 84.4652 8.54182C84.1324 9.1337 83.8462 10.0013 83.8062 10.647C83.8062 10.647 83.5533 10.8959 83.2139 11.1313C82.6215 11.5483 82.3952 11.3331 82.6681 10.6336L83.6798 8.20553H82.941L82.7879 8.58218C82.7147 8.50147 82.6947 8.46111 82.5948 8.39385C82.1489 7.98358 81.1305 8.17863 80.5714 9.12025C80.5714 9.12025 80.3717 9.17405 80.1587 9.23458C79.979 9.29512 79.8792 9.32202 79.8792 9.32202C79.9591 8.73015 79.7194 7.81543 79.0405 7.68091M77.6361 11.4205C77.6361 11.4205 77.4697 11.2994 77.5562 10.9631C77.716 10.378 78.9939 9.79956 78.9939 9.79956C78.8808 10.1829 78.6478 10.6874 78.508 10.9362C78.3416 11.2389 77.9356 11.6357 77.6361 11.4272" fill="#F4DB6C"/>
         <path d="M98.3697 7.70111C98.9354 7.54642 99.195 6.88728 98.8889 6.26178C98.8622 6.76622 98.4895 7.12941 98.2299 7.21685C98.0036 7.29756 97.7706 7.41863 97.125 7.21685C97.3779 7.57332 97.7906 7.85581 98.3697 7.69439" fill="#F4DB6C"/>
         <path d="M104.42 17.003C104.546 15.4426 103.422 15.2542 103.022 15.8259L104.16 13.028L97.4844 13.0078C97.0917 13.0078 96.4194 13.028 96.2863 13.6333C96.1532 14.2454 96.3729 14.8978 96.5792 15.5771C96.7323 16.0882 96.5259 17.0702 96.4727 17.2854C96.2065 18.3414 95.8137 18.7113 95.7339 18.7853C95.5475 18.9602 94.7754 19.2427 94.9285 18.032C94.9285 18.0589 95.015 17.5343 95.1082 17.2182C95.2746 16.7608 95.5675 15.7587 96.3595 15.6981L96.2996 15.5434C95.5675 15.4762 94.9884 15.9335 94.7421 16.2967C94.0965 17.2384 94.3161 18.2674 94.3161 18.2674C94.3161 18.2674 92.6455 19.505 93.3044 18.0118L94.4093 15.3888H93.6306L92.9783 16.9761C91.7868 17.3325 92.0797 16.2026 92.0797 16.2026C92.2195 15.3282 92.8052 14.3395 93.6306 14.474C93.8968 14.5144 93.9966 14.6153 94.183 14.8372L94.4027 14.7229C94.1963 14.5077 93.7837 14.1916 93.2512 14.0301C91.3276 13.445 90.1827 13.5593 89.1444 13.7813C87.0278 14.2185 85.4037 15.308 83.9726 16.4245L84.372 15.4695C83.2937 15.8528 82.921 15.8192 82.921 15.8192C83.094 15.0726 83.1273 13.7745 82.1888 13.5997C81.4966 13.4652 81.0107 13.9427 80.8709 14.2924C80.6047 14.9448 80.6646 15.9335 81.9692 16.095C81.6231 17.3998 81.2304 18.0791 80.9575 18.4356C80.4316 19.1216 80.0922 19.2628 79.593 19.1552C78.9407 19.0073 78.9074 18.4019 78.9207 17.541C78.934 16.9021 79.5597 13.8418 81.1838 13.1154C81.9226 12.7858 82.3086 12.9473 82.6148 13.1356C82.7746 13.2365 82.8811 13.3912 82.9676 13.4719L83.0608 13.3374C83.0608 13.3374 82.7546 12.6581 81.9958 12.5235C81.7695 12.4899 81.3036 12.5235 80.9841 12.6312C79.9258 12.9607 78.9207 13.7476 78.3483 15.5367C78.2751 15.799 77.9489 16.8146 78.2285 18.1127C78.4148 18.9938 78.9673 19.1821 79.2069 19.3032C79.4732 19.4377 80.5315 19.626 81.4966 18.6642C81.8227 18.3347 82.2088 17.8168 82.5749 17.0299C82.7879 16.5456 82.8811 16.1622 82.8811 16.1622C82.8811 16.1622 83.3603 16.1151 83.4135 16.0748C83.4135 16.0748 82.5017 18.3078 82.1356 19.1014H82.8611L83.6199 17.2451C83.6199 17.2451 84.4053 16.9222 84.1923 17.4872C83.9527 18.1329 84.0325 17.8773 83.7929 18.5432C83.52 19.283 84.392 19.2897 85.3904 18.5903L85.184 19.1014H85.8696L86.9945 16.4514C86.9945 16.4514 87.1675 16.3304 87.4604 16.2093C87.6401 16.142 88.1127 15.8999 87.9197 16.364L86.7748 19.0947C87.0211 19.0947 87.5469 19.0947 87.5469 19.0947L88.5853 16.5523C89.6968 15.9335 89.4306 16.4514 89.384 16.5658L88.6718 18.2405C88.3124 19.0476 88.6984 19.3637 89.6835 18.8996C89.8499 18.8189 89.9232 18.7719 89.9232 18.7719C90.1095 19.6664 91.7469 18.5297 92.6721 17.3056C92.6721 17.3056 92.7653 17.3056 92.8585 17.2787L92.4724 18.2405C92.1862 19.3032 92.8917 19.357 94.3627 18.5297C94.3627 18.5297 94.5557 19.1149 95.3345 19.1149C95.8404 19.162 96.4194 18.7046 96.6324 18.4019C96.6324 18.4019 96.912 18.375 96.466 19.0073C96.04 19.6059 95.6473 19.8883 95.3611 20.4533C94.7022 21.7581 95.1615 22.5316 95.461 22.5787C95.9735 22.6594 96.5526 22.498 97.3779 20.7694C97.3779 20.7694 98.982 17.0837 99.4812 15.8865C99.8407 15.0256 100.307 15.0659 100.453 15.1533C100.926 15.4291 100.626 16.8012 100.626 16.8012C98.3031 17.5881 98.4695 19.4108 99.6942 19.0476C100.12 18.9198 101.045 18.2271 101.445 16.8079C101.445 16.8079 101.831 16.707 101.977 16.6599C101.977 16.6599 101.864 17.0097 101.598 17.6083C101.212 18.4894 101.458 19.0678 102.104 19.0947C103.868 19.1821 104.38 17.2047 104.38 17.2047C104.407 17.2047 104.879 17.2182 105.212 16.8617L105.092 16.7406C104.873 17.0164 104.447 17.0097 104.427 17.0097M82.0357 15.7721C82.0357 15.7721 81.9625 15.7789 81.6364 15.6847C81.024 15.5098 80.9308 14.7834 81.2304 14.3462C81.4966 13.9696 81.856 14.131 81.9625 14.2723C82.2754 14.6893 82.0357 15.7721 82.0357 15.7721ZM85.5435 18.2136C85.4569 18.3481 84.1191 19.2628 84.4785 18.4087C84.6582 17.9715 84.6982 17.8706 84.8446 17.5208C85.3238 16.4044 83.7596 16.9357 83.7596 16.9357C83.733 16.9492 83.8196 16.7743 83.8196 16.7743C84.6582 16.1891 86.3289 15.2811 86.8347 15.0726L85.5368 18.2203L85.5435 18.2136ZM90.9948 18.5768C90.8617 18.6642 90.3957 18.745 90.7751 17.8706C90.8017 17.8706 90.0363 17.8706 90.0363 17.8706C89.9365 18.0724 89.8832 18.2472 89.8699 18.5297C89.8699 18.5297 89.6636 18.6911 89.4772 18.745C89.3907 18.7719 89.0978 18.8324 89.3308 18.328L90.1495 16.4111C90.4956 15.6174 89.9032 15.6309 89.3707 15.8394C88.998 15.9806 88.745 16.1555 88.745 16.1555C88.745 16.1555 89.0512 15.5569 88.4854 15.5636C88.1393 15.5704 87.5403 15.7049 87.101 16.0613L87.6335 14.8103C87.6335 14.8103 89.5637 13.8956 93.0116 14.2723C92.4258 14.2924 91.8201 14.5682 91.4341 15.4829C91.2277 15.9672 91.281 16.8146 91.6337 17.1509C91.8601 17.3594 92.306 17.3393 92.306 17.3393C92.306 17.3393 91.6471 18.1665 90.9881 18.5768M100.007 18.2472C99.854 18.5163 99.5411 18.9266 99.2283 18.8257C99.0153 18.7584 99.0153 18.4692 99.0153 18.4557C99.0486 17.6823 100.546 17.0568 100.546 17.0568C100.313 17.7361 100.114 18.0589 100.007 18.2472ZM101.425 16.5725C101.511 15.678 101.025 14.8978 100.433 14.8776C99.235 14.8507 98.6426 15.9134 98.1766 17.0366C97.3713 18.9467 96.1465 21.9061 96.1465 21.9061C95.9069 22.4442 95.6207 22.4778 95.4876 22.4038C95.3878 22.35 95.2946 22.1684 95.3811 21.7245C95.4543 21.3344 95.6873 20.5946 96.719 19.1418C97.0518 18.6777 97.338 18.1665 96.8654 18.106C96.8654 18.106 97.2847 17.4334 97.3114 16.7137C97.338 16.0075 97.0984 15.456 96.9719 15.1735C96.4927 14.0638 96.3263 13.6938 97.5443 13.6938C98.7424 13.6938 103.255 13.6938 103.255 13.6938C103.242 13.7409 102.097 16.364 102.097 16.364C101.831 16.4313 101.425 16.5591 101.425 16.5591M102.19 18.8391C101.791 18.7988 101.977 18.2607 102.064 18.0858C102.31 17.5276 102.603 16.8214 102.922 16.1017C102.789 16.7339 103.362 17.0366 103.701 17.1106C103.701 17.1106 102.969 18.9131 102.19 18.8391ZM103.761 16.8953C103.761 16.8953 103.082 16.7272 103.122 16.1757C103.155 15.8327 103.468 15.7519 103.608 15.8663C103.954 16.1488 103.754 16.8953 103.754 16.8953" fill="#F4DB6C"/>
         <path d="M100.786 9.65832C101.365 9.65832 101.831 9.19424 101.831 8.62254C101.831 8.05085 101.365 7.58676 100.786 7.58676C100.2 7.58676 99.7342 8.05085 99.7342 8.62254C99.7342 9.19424 100.207 9.65832 100.786 9.65832ZM100.786 7.7011C101.292 7.7011 101.704 8.1181 101.704 8.62254C101.704 9.12698 101.292 9.54399 100.786 9.54399C100.28 9.54399 99.854 9.13371 99.854 8.62254C99.854 8.11138 100.273 7.7011 100.786 7.7011Z" fill="#F4DB6C"/>
         <path d="M100.54 8.72344H100.792L100.972 9.25479H101.252C101.252 9.25479 101.059 8.72344 101.065 8.72344C101.112 8.70999 101.285 8.63601 101.285 8.39388C101.285 8.11139 101.099 7.99033 100.906 7.99033H100.287V9.26151H100.54V8.73017V8.72344ZM100.54 8.1921H100.852C100.852 8.1921 101.019 8.17865 101.019 8.3468C101.019 8.51494 100.826 8.50149 100.826 8.50149H100.533V8.1921H100.54Z" fill="#F4DB6C"/>
         <path d="M48.2896 29.1566C48.5691 29.1768 48.8487 29.1095 49.1083 28.9548C49.7872 28.5445 50.0069 27.65 49.5942 26.9505C49.3412 26.5133 48.8953 26.2578 48.436 26.2308C48.1565 26.2107 47.8769 26.2779 47.6173 26.4326C46.9384 26.8429 46.7188 27.7374 47.1314 28.4369C47.391 28.8741 47.8303 29.123 48.2896 29.1566Z" fill="#681E00"/>
         <path d="M108.627 30.4547C107.056 30.4547 105.778 31.7124 105.778 33.2728C105.778 34.8332 107.049 36.0909 108.627 36.0909C110.204 36.0909 111.469 34.8265 111.469 33.2728C111.469 31.7191 110.197 30.4547 108.627 30.4547ZM108.627 35.6672C107.289 35.6672 106.21 34.5978 106.21 33.2728C106.21 31.9478 107.295 30.8784 108.627 30.8784C109.958 30.8784 111.043 31.9478 111.043 33.2728C111.043 34.5978 109.958 35.6672 108.627 35.6672Z" fill="#681E00"/>
         <path d="M109.765 32.7347C109.765 32.089 109.345 31.8066 108.906 31.8066H107.482V34.7323H108.068V33.5015H108.66L109.053 34.7323C109.053 34.7323 109.658 34.7323 109.712 34.7323C109.712 34.7323 109.266 33.5082 109.279 33.5015C109.385 33.4746 109.765 33.2997 109.765 32.7347ZM108.74 33.0172H108.068V32.2976H108.793C108.793 32.2976 109.172 32.2706 109.186 32.654C109.199 33.0307 108.74 33.0172 108.74 33.0172Z" fill="#681E00"/>
         <path d="M100.779 30.986C100.779 30.986 100.453 32.0151 100.353 32.2908C100.047 31.9344 98.8822 30.912 95.8736 31.4165C92.7653 32.1294 90.0829 34.7659 87.6667 39.4875C87.2274 40.3484 86.9146 41.0479 86.655 41.8752C85.2373 43.8257 82.8078 46.2672 81.7096 46.9397C81.5165 47.0608 81.2969 47.1348 81.1372 47.1415C80.9574 47.1482 80.7511 46.9935 80.7112 46.7178C80.6845 46.5631 80.6313 45.9914 80.5448 45.117C80.3118 41.8954 79.786 39.965 78.8674 39.2185C78.5014 38.9225 77.9422 38.788 77.1036 38.6737C76.9638 38.6535 76.6909 38.64 76.6909 38.64C78.6411 36.286 82.1755 33.3871 84.0192 32.3917C84.0791 32.3581 84.2721 32.2639 84.332 32.2303C84.1989 32.3715 84.0858 32.6002 84.0791 32.7751C84.0592 33.4813 84.4718 34.127 85.1175 34.3826C85.5235 34.544 85.9761 34.5373 86.3821 34.3557C86.7881 34.1741 87.101 33.8445 87.2674 33.4275C87.6068 32.5666 87.1941 31.5846 86.3488 31.2483C86.249 31.208 86.1491 31.1811 86.056 31.1609L86.016 31.1474C85.8962 31.1273 85.7698 31.1138 85.6366 31.1138C83.0408 31.1138 78.7809 35.035 76.7175 37.2881C77.6228 34.9879 78.8408 32.1092 79.0671 31.6384C79.1603 31.4366 79.2735 31.2214 79.3267 31.1407C79.3999 31.0398 79.5397 30.9726 79.5397 30.9726H75.3131C75.3131 30.9726 75.373 31.0533 75.3797 31.1945C75.3863 31.3358 75.2931 31.7057 75.1667 32.1227C75.0202 32.6204 73.7556 35.9161 71.406 41.9223C69.1296 44.1418 66.1877 46.6236 65.5554 47.0675C65.0029 47.4509 64.7367 47.5585 64.517 47.6258C64.4172 47.6527 64.2641 47.6527 64.2042 47.6056C64.1243 47.5383 63.9446 47.3702 64.0711 46.7447C64.1243 46.4891 64.2707 46.0116 64.4638 45.4802C66.3008 40.6309 69.0897 33.4342 69.3559 32.8087C69.4491 32.5868 69.5423 32.385 69.6155 32.2101V32.1967C69.6954 32.0352 69.7553 31.9007 69.8019 31.7864C69.8751 31.6048 70.0282 31.2954 70.1147 31.1811C70.2212 31.0398 70.3344 30.9726 70.3344 30.9726H66.1411V31.0869C66.1677 31.3694 66.1145 31.7191 65.9947 32.1227C65.8748 32.5195 65.0295 34.7458 63.4787 38.7342H58.46C58.8194 37.806 59.1656 36.9249 59.4784 36.1313C60.2239 34.2279 60.6698 33.0509 60.7697 32.8087C61.0359 32.1294 61.2356 31.5779 61.4219 31.3089C61.5418 31.1273 61.7148 30.9726 61.7148 30.9726H57.4882C57.4882 30.9726 57.5481 31.0465 57.5614 31.255C57.5748 31.4703 57.5015 31.7393 57.3884 32.1227C57.242 32.6271 56.0039 35.8555 53.6011 41.9962C49.9736 46.6102 44.7552 49.6368 42.206 48.6078C41.2142 48.2109 40.7616 47.1819 40.8947 45.6417V45.608C40.9014 45.5273 40.9213 45.339 40.9347 45.2381C40.9946 45.2045 41.0744 45.1641 41.1743 45.1103C47.8503 41.5658 50.7057 38.8822 51.9171 37.2612C53.0553 35.8623 53.5612 34.0597 53.1485 32.876C52.6293 31.403 50.7057 30.5287 48.669 30.8448C44.7552 31.4636 41.4205 34.1135 39.2906 38.297C38.1058 40.6376 37.5733 43.5297 37.8662 46.0452C36.6082 46.7514 33.6463 48.406 32.2352 48.4732C31.9224 48.48 31.5696 48.4598 31.4298 48.2513C31.0904 47.6594 31.543 45.2045 35.8162 36.5483C35.9093 36.3532 36.0025 36.1582 36.0957 35.9766C36.2954 35.5663 36.5017 35.1359 36.7347 34.6987C36.9344 34.322 37.1274 33.905 37.3204 33.5015C37.5467 33.0172 37.7797 32.5195 38.006 32.1092C38.2589 31.6653 38.4187 31.329 38.5052 31.2147C38.5984 31.0802 38.7581 30.9658 38.7581 30.9658H34.1122C34.1122 30.9658 34.1588 31.0465 34.1721 31.2483C34.1788 31.477 34.1055 31.6855 33.9924 32.0016C33.593 33.1316 32.9674 34.6314 32.8276 34.9139C32.6878 35.1762 32.4482 35.6739 32.1487 36.3062L32.1354 36.3331C31.6162 37.4227 30.9106 38.9158 30.3316 39.9381C28.4546 43.2742 25.9519 46.1259 23.4625 47.7536C22.7171 48.2446 21.9383 48.4329 21.2794 48.2916C20.7069 48.1638 20.3342 47.7267 20.3076 47.1482C20.3076 47.1348 20.3076 47.1146 20.3076 47.0944V47.081C20.3076 46.9666 20.3142 46.8523 20.3409 46.7447C20.7269 47.1684 21.2794 47.3567 21.8385 47.2559C22.2711 47.1751 22.6438 46.9263 22.8968 46.5564C23.1497 46.1864 23.2429 45.7425 23.163 45.2986C23.0432 44.626 22.5373 44.0947 21.8851 43.9535C21.5855 43.8728 20.5272 43.7181 19.5355 45.0565C19.0895 45.6551 18.8898 46.5429 18.9963 47.4375C18.9963 47.4576 18.9963 47.4778 19.003 47.498C19.0163 47.6056 19.0629 47.841 19.0962 47.9755C18.9697 48.063 18.131 48.406 17.5853 48.5001C17.0794 48.5539 16.7599 48.2782 16.68 48.0764C16.4803 47.5383 16.4271 46.5093 16.9196 44.8547C17.7117 42.2249 23.1896 28.6387 23.8087 27.0985L23.822 27.0716C23.8619 26.9841 23.9418 26.7958 24.0283 26.5604C24.1348 26.2846 24.188 26.1367 24.3079 25.8811C24.3145 25.8811 24.7272 26.1434 24.7272 26.1434C26.5043 24.2265 28.4879 21.0385 29.3132 17.6823C29.5861 16.4514 30.7243 10.2704 26.3912 9.25478C23.7621 8.67635 20.3142 10.1022 15.8414 13.6333C14.0376 15.1466 10.2902 18.2876 6.74255 23.6548C2.8288 29.5803 -0.0665779 37.6177 -1.74989e-05 42.3594C-0.0599219 46.3277 0.858612 48.2109 1.93024 49.3678C2.39616 49.8722 2.98189 49.9597 3.32135 49.9664C4.26651 49.9664 5.23163 49.388 5.74415 49.1189C8.32669 47.7737 11.029 44.7673 13.6582 41.6734L13.7048 41.6196C13.9976 41.2766 14.2905 40.9336 14.5834 40.5905C14.0642 42.3056 13.5118 44.2023 13.3653 45.5475C13.1923 47.1079 13.3786 48.1975 13.9244 48.8701C14.4769 49.5494 15.3688 50.0067 16.041 50C16.3805 50 16.9862 49.9328 17.552 49.7579C18.5437 49.4485 19.4889 48.9239 19.5222 48.9037C19.9615 49.4283 20.667 49.7175 21.5123 49.7377H21.5789C24.1281 49.7377 26.8638 46.516 29.453 42.958C28.6077 45.608 28.5544 47.5114 29.2799 48.6212C29.7192 49.2938 30.4447 49.6637 31.4365 49.7242C33.6796 49.8924 37.6599 47.3433 38.026 47.0474C38.3321 48.1437 38.9046 48.8701 39.3505 49.1862C39.9096 49.583 40.7483 49.926 42.166 49.9798C42.8516 50.0067 43.617 49.9328 44.4557 49.731C47.218 49.0718 50.0401 47.2559 52.7292 44.2158L51.7707 46.664C51.4312 47.5316 51.1517 48.2513 50.952 48.7557C50.8189 49.0987 50.7723 49.1929 50.6458 49.361C50.5193 49.5292 50.2997 49.6839 50.2997 49.6839H54.6794C54.6794 49.6839 54.5662 49.6099 54.5263 49.4619C54.4864 49.3274 54.4864 49.1727 54.6062 48.8364C55.132 47.3231 56.2702 44.3436 58.0873 39.6758H63.1059C62.6001 40.9874 62.0809 42.3056 61.5883 43.5634L61.5617 43.6306C61.4086 44.0275 60.743 45.8703 60.6498 46.3479C60.4834 47.2424 60.4102 48.4665 60.996 49.1727C61.2955 49.5359 61.7348 49.7175 62.3072 49.7175H62.3338C63.5585 49.7041 64.8099 48.8432 65.6352 48.2715L65.8682 48.11C66.4473 47.6863 68.6504 45.9241 70.6672 43.8189C70.2745 44.8211 69.8884 45.7762 69.5623 46.5967L69.4758 46.8187C69.0631 47.8746 68.7369 48.7019 68.5639 49.1525C68.4574 49.4418 68.1645 49.6839 68.1645 49.6839C69.4957 49.6839 72.3245 49.6839 72.3512 49.6839C72.3512 49.6839 72.1648 49.4619 72.2447 49.2333C72.2447 49.2333 74.987 41.8617 75.799 39.7834C77.1635 40.2475 77.2234 42.124 77.2766 44.1082C77.2966 44.8346 77.3299 45.6753 77.4297 46.4218C77.7159 48.5741 78.3283 49.5628 79.533 49.7175C80.0788 49.7579 80.578 49.5225 80.8509 49.3274C82.2021 48.3454 85.9229 44.3503 86.1558 43.9131C85.8962 45.83 86.3422 47.8881 87.2208 48.9709C87.7666 49.6435 88.3057 49.9664 89.1111 49.9664C91.2277 49.9664 93.9234 47.8545 95.8537 45.2246C95.6207 45.9981 95.4476 46.8456 95.4277 47.1012C95.3545 47.8948 95.6007 48.6145 95.9801 49.1458C96.3196 49.6166 96.872 49.9529 97.511 49.9597C97.957 49.9664 98.7224 49.8857 99.5278 49.4619C100.619 48.8902 101.671 47.5182 102.15 46.8187L102.257 46.6573H102.064C102.064 46.6573 101.837 46.6573 101.651 46.6304H101.604L101.571 46.6573C101.505 46.7245 101.418 46.8187 101.325 46.9196C100.899 47.3702 100.26 48.0562 99.834 48.2446C99.3015 48.4867 98.8555 48.3993 98.7424 48.184C98.3164 47.3567 98.7956 46.025 99.4679 44.1754C99.6609 43.6508 103.881 31.9882 103.881 31.9882C104.034 31.5913 104.12 31.3425 104.18 31.2214C104.247 31.0869 104.427 30.9658 104.427 30.9658H100.779V30.986ZM47.7638 32.385C48.3362 32.0083 48.9685 31.7931 49.5076 31.7931C49.6607 31.7931 49.8005 31.8066 49.927 31.8402C50.1932 31.9075 50.3862 32.0554 50.4927 32.2505C51.2116 33.8647 49.714 37.4563 46.0465 40.4426C43.657 42.3863 42.0662 43.523 40.928 44.1082C41.6934 41.0412 44.4291 34.5911 47.7704 32.385M2.34957 46.8456C2.12326 45.0363 2.34291 43.5634 2.41613 43.0253C2.68237 41.169 3.24813 39.0301 4.09345 36.6559C5.74415 32.1967 6.9622 29.5669 8.93905 26.251C12.52 20.2314 16.4937 14.2454 21.6987 11.2658C23.0965 10.4453 25.6257 9.28841 27.1899 10.6067C29.1401 12.2545 28.9138 15.6981 28.0552 18.4087C27.4162 20.4197 25.8787 23.3589 25.2197 23.8499L25.1598 23.749C24.8204 23.7624 21.1196 23.7423 21.1196 23.7423C21.1196 23.7423 21.1729 23.9306 21.1729 24.1862C21.1729 24.4888 21.073 24.7982 20.9599 25.0202C20.9466 25.0471 16.7599 34.9812 16.1875 36.3331C15.5618 38.0616 7.83415 47.9957 4.06017 48.5405C3.12832 48.6683 2.50931 48.0293 2.34957 46.8456ZM99.7741 33.8311C99.6942 34.0396 99.601 34.3086 99.4812 34.6314C99.1817 35.4251 98.789 36.4945 98.3896 37.5639C97.8771 38.936 97.338 40.3484 97.0118 41.1891C96.8321 41.6465 96.7256 41.929 96.7123 41.9693C94.9085 45.9981 92.1928 47.8208 90.3025 47.841C89.8033 47.8276 88.6319 47.4644 88.8182 45.4735C88.938 43.8862 89.7168 41.7272 91.1345 39.057C93.4841 34.9274 95.2946 33.3401 96.3995 32.7347C96.8987 32.4455 97.4045 32.3514 97.8505 32.3514C98.3896 32.3514 98.8356 32.4859 99.0752 32.58C99.5944 32.7751 99.9338 33.0441 100.014 33.2055C99.9737 33.293 99.9005 33.4948 99.7741 33.8311Z" fill="#681E00"/>
         <path d="M53.0819 29.1499C53.8873 29.1499 54.533 28.4975 54.533 27.6971C54.533 26.8967 53.8807 26.2443 53.0819 26.2443C52.2832 26.2443 51.6309 26.89 51.6309 27.6971C51.6309 28.5042 52.2832 29.1499 53.0819 29.1499Z" fill="#681E00"/>
      </symbol>

      <symbol id="lk" viewBox="0 0 20 20" >
         <path d="M14.6782 0C17.6174 0 20.0001 2.43046 20.0001 5.42858V14.5714C20.0001 17.5695 17.6174 20 14.6782 20H6.5553C3.61609 20 1.2334 17.5695 1.2334 14.5714C1.2334 14.098 1.60961 13.7142 2.0737 13.7142C2.53778 13.7142 2.914 14.098 2.914 14.5714C2.914 16.6228 4.54426 18.2858 6.5553 18.2858H11.6373C10.7438 17.3147 10.1966 16.0082 10.1966 14.5714V5.42858C10.1966 3.99175 10.7438 2.68532 11.6373 1.71428H6.5553C4.54426 1.71428 2.914 3.37722 2.914 5.42858C2.914 5.90195 2.53778 6.28572 2.0737 6.28572C1.60961 6.28572 1.2334 5.90195 1.2334 5.42858C1.2334 2.43046 3.61609 0 6.5553 0H14.6782Z" fill="white"/>
         <path d="M4.84078 7.10823C4.51262 7.44296 4.51262 7.98568 4.84078 8.32041L5.6471 9.14289H0.840301C0.376214 9.14289 0 9.52665 0 10C0 10.4734 0.376216 10.8572 0.840301 10.8572H5.6471L4.84078 11.6797C4.51262 12.0144 4.51262 12.5571 4.84078 12.8918C5.16893 13.2266 5.70098 13.2266 6.02914 12.8918L7.4777 11.4142C8.2434 10.6332 8.2434 9.36687 7.4777 8.58582L6.02914 7.10823C5.70098 6.77349 5.16893 6.77349 4.84078 7.10823Z" fill="white"/>
      </symbol>






      <symbol id="arr-right" viewBox="0 0 30 16">
         <path d="M29.4277 7.50463L22.7085 0.785356C22.4671 0.50351 22.0429 0.470654 21.7611 0.71208C21.4792 0.953448 21.4464 1.37763 21.6878 1.65948C21.7103 1.68575 21.7348 1.71029 21.7611 1.73275L27.3313 7.30974H0.729765C0.358705 7.30974 0.0578613 7.61059 0.0578613 7.9817C0.0578613 8.35282 0.358705 8.65361 0.729765 8.65361H27.3313L21.7611 14.2238C21.4792 14.4652 21.4464 14.8894 21.6878 15.1712C21.9292 15.4531 22.3533 15.4859 22.6352 15.2445C22.6615 15.222 22.686 15.1975 22.7085 15.1712L29.4277 8.45197C29.6882 8.18999 29.6882 7.76673 29.4277 7.50463Z" />
      </symbol>

   </defs>
</svg> 